<svg width="15" height="26" viewBox="0 0 15 26" fill="none" xmlns="http://www.w3.org/2000/svg">
<path d="M14.4264 25.4277C14.7937 25.0611 15 24.5641 15 24.0458C15 23.5274 14.7937 23.0304 14.4264 22.6638L4.72885 12.9882L14.4264 3.3126C14.7833 2.94394 14.9807 2.45019 14.9763 1.93768C14.9718 1.42517 14.7658 0.934919 14.4025 0.572508C14.0393 0.210096 13.5479 0.00452805 13.0343 7.43866e-05C12.5206 -0.00437927 12.0257 0.19264 11.6562 0.548698L0.573598 11.6062C0.206323 11.9728 0 12.4699 0 12.9882C0 13.5065 0.206323 14.0036 0.573598 14.3701L11.6562 25.4277C12.0236 25.7941 12.5218 26 13.0413 26C13.5608 26 14.059 25.7941 14.4264 25.4277Z" fill="#5AD679"/>
</svg>
