<svg width="35" height="35" viewBox="0 0 35 35" fill="none" xmlns="http://www.w3.org/2000/svg">
<path d="M14.494 5.35391C14.7074 4.82635 15.0736 4.37456 15.5455 4.05643C16.0173 3.73831 16.5735 3.56836 17.1426 3.56836C17.7117 3.56836 18.2678 3.73831 18.7397 4.05643C19.2116 4.37456 19.5777 4.82635 19.7912 5.35391C21.9037 5.93489 23.7671 7.19328 25.0951 8.93583C26.4232 10.6784 27.1425 12.8087 27.1426 14.9997V21.7097L29.7598 25.6354C29.9033 25.8506 29.9858 26.1007 29.9983 26.359C30.0109 26.6173 29.953 26.8742 29.831 27.1022C29.709 27.3303 29.5274 27.5209 29.3055 27.6538C29.0836 27.7867 28.8298 27.8569 28.5712 27.8569H22.0926C21.9206 29.047 21.3255 30.1354 20.4164 30.9225C19.5074 31.7097 18.3451 32.1429 17.1426 32.1429C15.9401 32.1429 14.7778 31.7097 13.8687 30.9225C12.9596 30.1354 12.3646 29.047 12.1925 27.8569H5.71395C5.45531 27.8569 5.20152 27.7867 4.97965 27.6538C4.75777 27.5209 4.57614 27.3303 4.45412 27.1022C4.33211 26.8742 4.27429 26.6173 4.28684 26.359C4.29939 26.1007 4.38183 25.8506 4.52537 25.6354L7.14253 21.7097V14.9997C7.14253 10.3939 10.2568 6.51391 14.494 5.35391ZM15.1226 27.8569C15.2701 28.2749 15.5437 28.637 15.9056 28.893C16.2675 29.1491 16.6999 29.2866 17.1433 29.2866C17.5866 29.2866 18.0191 29.1491 18.381 28.893C18.7429 28.637 19.0165 28.2749 19.164 27.8569H15.1211H15.1226ZM17.1426 7.85678C15.2482 7.85678 13.4313 8.60933 12.0918 9.94888C10.7522 11.2884 9.99968 13.1053 9.99968 14.9997V22.1426C9.99975 22.4247 9.91623 22.7006 9.75968 22.9354L8.38396 24.9997H25.8998L24.524 22.9354C24.368 22.7005 24.285 22.4246 24.2855 22.1426V14.9997C24.2855 13.1053 23.5329 11.2884 22.1934 9.94888C20.8538 8.60933 19.037 7.85678 17.1426 7.85678Z" fill="black"/>
</svg>
