<svg width="51" height="50" viewBox="0 0 51 50" fill="none" xmlns="http://www.w3.org/2000/svg">
<path d="M16.9985 5.82812C16.9985 4.98676 16.3016 4.30469 15.4421 4.30469C14.5825 4.30469 13.8857 4.98676 13.8857 5.82812V9.036C10.8987 9.2701 8.93786 9.84466 7.49725 11.2548C6.05663 12.6648 5.46964 14.5842 5.23047 17.5078H46.4058C46.1667 14.5842 45.5796 12.6648 44.139 11.2548C42.6984 9.84466 40.7375 9.2701 37.7506 9.036V5.82812C37.7506 4.98676 37.0538 4.30469 36.1942 4.30469C35.3347 4.30469 34.6378 4.98676 34.6378 5.82812V8.9012C33.2572 8.875 31.7097 8.875 29.9686 8.875H21.6677C19.9265 8.875 18.3791 8.875 16.9985 8.9012V5.82812Z" fill="#763DD9"/>
<path fill-rule="evenodd" clip-rule="evenodd" d="M5.06641 25.125C5.06641 23.4208 5.06641 21.9061 5.09318 20.5547H46.544C46.5707 21.9061 46.5707 23.4208 46.5707 25.125V29.1875C46.5707 36.8477 46.5707 40.6781 44.1394 43.0577C41.7083 45.4375 37.7951 45.4375 29.969 45.4375H21.6681C13.842 45.4375 9.92895 45.4375 7.49767 43.0577C5.06641 40.6781 5.06641 36.8477 5.06641 29.1875V25.125ZM36.1947 29.1875C37.3408 29.1875 38.2699 28.2781 38.2699 27.1562C38.2699 26.0344 37.3408 25.125 36.1947 25.125C35.0485 25.125 34.1194 26.0344 34.1194 27.1562C34.1194 28.2781 35.0485 29.1875 36.1947 29.1875ZM36.1947 37.3125C37.3408 37.3125 38.2699 36.4031 38.2699 35.2812C38.2699 34.1594 37.3408 33.25 36.1947 33.25C35.0485 33.25 34.1194 34.1594 34.1194 35.2812C34.1194 36.4031 35.0485 37.3125 36.1947 37.3125ZM27.8938 27.1562C27.8938 28.2781 26.9647 29.1875 25.8186 29.1875C24.6724 29.1875 23.7434 28.2781 23.7434 27.1562C23.7434 26.0344 24.6724 25.125 25.8186 25.125C26.9647 25.125 27.8938 26.0344 27.8938 27.1562ZM27.8938 35.2812C27.8938 36.4031 26.9647 37.3125 25.8186 37.3125C24.6724 37.3125 23.7434 36.4031 23.7434 35.2812C23.7434 34.1594 24.6724 33.25 25.8186 33.25C26.9647 33.25 27.8938 34.1594 27.8938 35.2812ZM15.4425 29.1875C16.5886 29.1875 17.5177 28.2781 17.5177 27.1562C17.5177 26.0344 16.5886 25.125 15.4425 25.125C14.2964 25.125 13.3673 26.0344 13.3673 27.1562C13.3673 28.2781 14.2964 29.1875 15.4425 29.1875ZM15.4425 37.3125C16.5886 37.3125 17.5177 36.4031 17.5177 35.2812C17.5177 34.1594 16.5886 33.25 15.4425 33.25C14.2964 33.25 13.3673 34.1594 13.3673 35.2812C13.3673 36.4031 14.2964 37.3125 15.4425 37.3125Z" fill="#B599E6"/>
</svg>
