<svg width="48" height="45" viewBox="0 0 48 45" fill="none" xmlns="http://www.w3.org/2000/svg">
<g clip-path="url(#clip0_164_744)">
<path d="M28.088 1.40625H45.713C46.9063 1.40625 47.916 2.42676 47.916 3.6328V18.4766C47.916 19.7754 46.9063 20.7031 45.713 20.7031H28.088C26.8026 20.7031 25.8849 19.7754 25.8849 18.4766V3.6328C25.8849 2.42676 26.8026 1.40625 28.088 1.40625ZM20.7441 1.40625C21.9375 1.40625 22.9473 2.42676 22.9473 3.6328V18.4766C22.9473 19.7754 21.9375 20.7031 20.7441 20.7031H3.11914C1.83399 20.7031 0.916016 19.7754 0.916016 18.4766V3.6328C0.916016 2.42676 1.83399 1.40625 3.11914 1.40625H20.7441ZM0.916016 25.8985C0.916016 24.6924 1.83399 23.6719 3.11914 23.6719H20.7441C21.9375 23.6719 22.9473 24.6924 22.9473 25.8985V40.7422C22.9473 42.041 21.9375 42.9688 20.7441 42.9688H3.11914C1.83399 42.9688 0.916016 42.041 0.916016 40.7422V25.8985ZM28.088 42.9688C26.8026 42.9688 25.8849 42.041 25.8849 40.7422V25.8985C25.8849 24.6924 26.8026 23.6719 28.088 23.6719H45.713C46.9063 23.6719 47.916 24.6924 47.916 25.8985V40.7422C47.916 42.041 46.9063 42.9688 45.713 42.9688H28.088Z" fill="#763DD9"/>
</g>
<defs>
<clipPath id="clip0_164_744">
<rect width="47" height="45" fill="white" transform="translate(0.916016)"/>
</clipPath>
</defs>
</svg>
