<svg width="57" height="35" viewBox="0 0 57 35" fill="none" xmlns="http://www.w3.org/2000/svg">
<path d="M0.901172 35V-2.38419e-06H7.40117V35H0.901172ZM3.90117 20.65V14.75H21.9512V20.65H3.90117ZM3.90117 6V-2.38419e-06H24.1012V6H3.90117Z" fill="#763DD9"/>
<path d="M31.3211 35V-2.38419e-06H45.8711C47.8711 -2.38419e-06 49.6711 0.483332 51.2711 1.45C52.9044 2.41667 54.2044 3.73333 55.1711 5.4C56.1378 7.06666 56.6211 8.93333 56.6211 11C56.6211 13.1 56.1378 15 55.1711 16.7C54.2044 18.3667 52.9044 19.7 51.2711 20.7C49.6711 21.7 47.8711 22.2 45.8711 22.2H37.8211V35H31.3211ZM37.8211 16.2H45.4211C46.2544 16.2 47.0044 15.9667 47.6711 15.5C48.3711 15.0333 48.9211 14.4167 49.3211 13.65C49.7544 12.8833 49.9711 12.0167 49.9711 11.05C49.9711 10.0833 49.7544 9.23333 49.3211 8.5C48.9211 7.73333 48.3711 7.13333 47.6711 6.7C47.0044 6.23333 46.2544 6 45.4211 6H37.8211V16.2Z" fill="#5AD679"/>
</svg>
