<svg width="44" height="34" viewBox="0 0 44 34" fill="none" xmlns="http://www.w3.org/2000/svg">
<g clip-path="url(#clip0_164_1187)">
<path d="M15.9572 33.9452C10.8 33.5054 6.4695 31.488 3.73826 28.253C1.968 26.1563 0.900707 23.7955 0.425038 20.9249C0.285021 20.0801 0.283835 17.4213 0.42311 16.522C0.924816 13.2806 2.26514 10.4983 4.39038 8.28666C6.99855 5.57238 10.5268 4.09747 14.4116 4.09747H15.4003L15.4458 3.72693C15.4709 3.52312 15.5327 2.78746 15.5833 2.09208C15.6339 1.3967 15.7199 0.73127 15.7743 0.613086C15.8288 0.495039 16.0019 0.308638 16.1592 0.198941C16.4127 0.0220332 16.5467 -0.000488281 17.3455 -0.000488281C18.1443 -0.000488281 18.2783 0.0220876 18.5319 0.198941C18.6891 0.308557 18.8631 0.496086 18.9185 0.615521C18.9739 0.734928 19.0593 1.36125 19.1081 2.00734C19.157 2.65339 19.2178 3.38256 19.2433 3.62777L19.2896 4.07359L20.6941 4.12133C21.4666 4.14757 22.4393 4.23203 22.8557 4.30892C25.0491 4.71396 27.1548 5.64274 28.8706 6.96213C29.7661 7.65071 31.0908 9.0606 31.7294 10.0047C32.2347 10.7519 32.2955 10.8109 32.5599 10.8109C33.0782 10.8109 34.5896 11.0776 35.3325 11.3002C38.0984 12.1288 40.6369 14.2952 42.0357 17.0205C42.9245 18.7521 43.2833 20.2821 43.2885 22.3635C43.2922 23.9048 43.1724 24.7337 42.7535 26.0624C41.5235 29.9633 38.1725 33.0024 34.2392 33.7846C31.5894 34.3115 28.6488 33.7692 26.4082 32.3402L25.9887 32.0727L25.1793 32.4208C22.4609 33.5897 18.8289 34.1902 15.9572 33.9452ZM20.2476 32.3908C21.4139 32.2058 23.1737 31.7427 24.0673 31.3855L24.7538 31.1111L24.0442 30.3383C22.5588 28.7204 21.5902 26.7675 21.1568 24.5155C20.9387 23.3827 20.9605 21.2477 21.202 20.0762C21.5194 18.5372 21.995 17.366 22.8758 15.9551C23.444 15.0449 24.9619 13.4517 25.842 12.8417C27.2281 11.8812 28.7785 11.2375 30.408 10.9462L30.7258 10.8893L30.3337 10.3721C29.4974 9.26882 27.8032 7.74622 26.8386 7.23092L26.5312 7.06673L26.3961 7.28037C26.1973 7.59479 25.9388 7.69948 24.4749 8.05822C23.7461 8.23683 23.1504 8.40937 23.1509 8.44164C23.1516 8.47388 23.2078 9.14772 23.2761 9.939C23.4473 11.9236 23.4401 12.4456 23.237 12.7909C23.054 13.1019 22.5158 13.4266 22.1831 13.4266C21.7931 13.4266 21.4156 13.1952 19.4185 11.7325C18.3336 10.9379 17.4055 10.2878 17.3563 10.2878C17.307 10.2878 16.3853 10.9297 15.308 11.7142C13.1577 13.2801 12.9221 13.4276 12.5754 13.4248C12.1886 13.4207 11.6659 13.1237 11.4696 12.7946C11.2491 12.4249 11.244 12.1518 11.4173 10.0199C11.4883 9.14748 11.5301 8.41677 11.5103 8.39637C11.4905 8.37583 10.9119 8.22277 10.2246 8.05624C8.61562 7.66638 8.71734 7.70472 8.39009 7.36552L8.10813 7.07329L7.49797 7.46317C4.62809 9.29698 2.56513 12.4701 1.84837 16.1533C1.57977 17.5335 1.5819 20.0299 1.85282 21.3173C2.65944 25.1506 4.82248 28.2137 8.08648 30.1451C10.3799 31.5022 12.5331 32.1729 15.8311 32.5576C16.5129 32.6371 19.3765 32.529 20.2476 32.3908ZM34.4299 32.318C38.1829 31.3141 40.8258 28.5514 41.7471 24.669C41.9092 23.9862 41.9432 23.6074 41.9461 22.4506C41.9498 20.9814 41.8832 20.4949 41.5171 19.3117C41.0297 17.737 40.2594 16.4247 39.1349 15.253C37.6804 13.7375 36.0479 12.8269 33.96 12.3662C33.2758 12.2153 31.0836 12.2181 30.3427 12.3703C26.333 13.197 23.2655 16.3762 22.4679 20.5319C22.3208 21.2986 22.3177 23.5704 22.4627 24.281C23.3543 28.6454 26.5674 31.8309 30.7703 32.5171C31.6587 32.6622 33.5212 32.561 34.4299 32.318ZM30.595 31.1718C27.028 30.4891 24.2284 27.5092 23.6522 23.7822C23.5086 22.8535 23.5876 21.0769 23.8113 20.2043C24.2194 18.612 24.9483 17.3064 26.0891 16.124C27.2237 14.9481 28.4566 14.2063 30.0259 13.7553C30.5797 13.5962 30.9027 13.5677 32.1512 13.5677C33.3951 13.5677 33.7235 13.5965 34.2691 13.7534C35.8599 14.2109 37.0719 14.9388 38.2145 16.1229C39.3631 17.3134 40.0796 18.5989 40.4932 20.2119C40.7149 21.0765 40.7933 22.8575 40.6504 23.7821C40.0619 27.5893 37.1556 30.6068 33.4973 31.2089C32.7658 31.3293 31.3214 31.3108 30.595 31.1718ZM33.6482 29.7671C36.3527 29.191 38.5653 26.9533 39.2173 24.1348C39.4459 23.1462 39.4459 21.6676 39.2173 20.6791C38.6917 18.4068 37.2096 16.5463 35.1327 15.5519C33.3156 14.6818 30.9871 14.6818 29.1699 15.5519C27.0419 16.571 25.5078 18.5455 25.0498 20.8557C24.8793 21.7156 24.8793 23.0984 25.0498 23.9583C25.6107 26.7871 27.8768 29.1582 30.595 29.7606C31.3861 29.9359 32.8413 29.9387 33.6482 29.7671ZM31.8192 22.98C31.7059 22.915 31.5855 22.7889 31.5517 22.6998C31.5179 22.6107 31.4875 21.415 31.4843 20.0428C31.4785 17.6459 31.4852 17.5389 31.6527 17.3181C31.7872 17.1409 31.9012 17.0884 32.1514 17.0884C32.4015 17.0884 32.5155 17.141 32.65 17.3181C32.8154 17.536 32.8244 17.6556 32.8244 19.6286V21.7094H34.2078C35.5372 21.7094 35.6001 21.7176 35.8201 21.9136C36.1344 22.1937 36.1344 22.6201 35.8201 22.9003C35.5953 23.1007 35.5586 23.1044 33.8082 23.1014C32.4693 23.0986 31.9738 23.0688 31.8192 22.98ZM14.8075 10.3866C16.9889 8.80089 17.2342 8.67971 17.7758 8.91989C17.9321 8.98911 18.9496 9.69488 20.0369 10.4882C21.1242 11.2815 22.0273 11.8917 22.0438 11.8442C22.0603 11.7966 22.0096 10.936 21.9311 9.9316C21.7915 8.14606 21.7919 8.09819 21.9504 7.77982C22.1982 7.28224 22.5358 7.10315 23.804 6.79662C24.4388 6.6432 25.0088 6.48951 25.0707 6.45507C25.217 6.37361 24.125 5.99904 23.0233 5.75273C22.3574 5.60385 21.784 5.55484 20.2729 5.51752C18.4223 5.47183 18.3582 5.46421 18.1833 5.27128C18.021 5.09228 17.9892 4.88627 17.8687 3.23333L17.7346 1.39448H16.953L16.8475 3.0292C16.7313 4.82901 16.6538 5.27604 16.4377 5.39327C16.3583 5.43638 15.4415 5.49255 14.4005 5.51826C12.9461 5.55402 12.3226 5.60611 11.7086 5.74263C10.6655 5.97464 9.48354 6.37979 9.62336 6.4574C9.68294 6.49058 10.251 6.64311 10.8858 6.79653C12.1649 7.10568 12.5139 7.29142 12.7487 7.78791C12.8999 8.10744 12.9006 8.18159 12.7698 9.83565C12.6139 11.806 12.6086 11.9708 12.7036 11.91C12.7418 11.8856 13.6885 11.2001 14.8075 10.3866Z" fill="#B599E6"/>
</g>
<defs>
<clipPath id="clip0_164_1187">
<rect width="43" height="34" fill="white" transform="translate(0.318359)"/>
</clipPath>
</defs>
</svg>
