<svg width="29mm" height="25mm" version="1.1" viewBox="0 0 29 25" xml:space="preserve" xmlns="http://www.w3.org/2000/svg"><path d="m10.547 24.96c-3.4781-0.32343-6.3987-1.8068-8.2407-4.1855-1.1939-1.5417-1.9137-3.2776-2.2345-5.3883-0.09443-0.62121-0.09523-2.5762-0.0013-3.2375 0.33836-2.3834 1.2423-4.4292 2.6756-6.0554 1.759-1.9958 4.1385-3.0803 6.7585-3.0803h0.66678l0.03071-0.27246c0.0169-0.14986 0.05862-0.69079 0.09275-1.2021s0.09208-1.0006 0.1288-1.0875c0.03672-0.0868 0.15351-0.22386 0.25954-0.30452 0.17101-0.13008 0.26136-0.14664 0.8001-0.14664 0.53873 0 0.62908 0.0166 0.8001 0.14664 0.10603 0.0806 0.22337 0.21849 0.26076 0.30631 0.03738 0.0878 0.09494 0.54833 0.12789 1.0234 0.03296 0.47504 0.07399 1.0112 0.09117 1.1915l0.03124 0.32781 0.94721 0.0351c0.52097 0.0193 1.177 0.0814 1.4578 0.13794 1.4793 0.29782 2.8994 0.98075 4.0566 1.9509 0.60394 0.50631 1.4973 1.543 1.928 2.2372 0.34079 0.54939 0.3818 0.59278 0.56008 0.59278 0.34958 0 1.3689 0.19612 1.8699 0.35979 1.8654 0.6093 3.5774 2.2022 4.5208 4.2061 0.59943 1.2733 0.84137 2.3983 0.84487 3.9287 0.0025 1.1333-0.07826 1.7428-0.3608 2.7198-0.8295 2.8683-3.0895 5.103-5.7422 5.6781-1.7871 0.38744-3.7703-0.0113-5.2814-1.062l-0.28292-0.1967-0.54585 0.25592c-1.8333 0.85951-4.2827 1.3009-6.2194 1.1208zm2.8935-1.143c0.78659-0.13601 1.9734-0.47655 2.5761-0.73916l0.46298-0.20175-0.47858-0.56827c-1.0018-1.1896-1.655-2.6256-1.9473-4.2815-0.14708-0.83297-0.13241-2.4028 0.0305-3.2642 0.21402-1.1316 0.5348-1.9928 1.1288-3.0302 0.38321-0.66929 1.4069-1.8408 2.0005-2.2893 0.93479-0.70629 1.9804-1.1796 3.0794-1.3938l0.21428-0.0418-0.26441-0.3803c-0.56404-0.81124-1.7066-1.9308-2.3572-2.3097l-0.2073-0.12073-0.0911 0.15709c-0.13405 0.23119-0.30843 0.30817-1.2957 0.57195-0.49148 0.13133-0.89328 0.2582-0.89289 0.28193 4.29e-4 0.0237 0.03837 0.51918 0.0844 1.101 0.11548 1.4593 0.11064 1.8431-0.02635 2.097-0.12341 0.22871-0.48638 0.46739-0.71078 0.46739-0.26301 0-0.51764-0.17012-1.8645-1.2456-0.7317-0.58427-1.3576-1.0623-1.3908-1.0623-0.03326 0-0.65488 0.47195-1.3814 1.0488-1.4502 1.1514-1.6091 1.2599-1.8429 1.2578-0.26087-3e-3 -0.61343-0.22137-0.7458-0.46338-0.14869-0.27186-0.15216-0.47265-0.03525-2.0402 0.04785-0.64151 0.07606-1.1788 0.06269-1.1938-0.01335-0.0151-0.40356-0.12765-0.86711-0.2501-1.0851-0.28666-1.0165-0.25847-1.2372-0.50788l-0.19016-0.21488-0.4115 0.28668c-1.9355 1.3484-3.3268 3.6816-3.8102 6.3898-0.18115 1.0149-0.17971 2.8505 3e-3 3.7971 0.544 2.8186 2.0028 5.0709 4.2041 6.4911 1.5467 0.99783 2.9989 1.491 5.2231 1.7739 0.45981 0.0584 2.3911-0.021 2.9786-0.12261zm9.5648-0.0535c2.5311-0.7382 4.3135-2.7696 4.9349-5.6243 0.1093-0.50206 0.13221-0.78061 0.13416-1.6312 0.0025-1.0803-0.04237-1.438-0.28933-2.308-0.32871-1.1579-0.84818-2.1228-1.6066-2.9844-0.98093-1.1143-2.0819-1.7839-3.49-2.1226-0.46147-0.111-1.9399-0.10895-2.4396 3e-3 -2.7042 0.60785-4.773 2.9455-5.3109 6.0012-0.09924 0.56373-0.10129 2.2342-0.0035 2.7567 0.60132 3.2091 2.7683 5.5514 5.6028 6.056 0.59916 0.10666 1.8552 0.0319 2.468-0.14679zm-2.5863-0.84279c-2.4057-0.50203-4.2938-2.6931-4.6824-5.4336-0.09681-0.68281-0.04352-1.9892 0.1073-2.6308 0.27528-1.1708 0.76682-2.1308 1.5362-3.0002 0.76524-0.8647 1.5967-1.4101 2.6551-1.7417 0.37349-0.117 0.5913-0.13797 1.4333-0.13797 0.8389 0 1.0604 0.0212 1.4284 0.13654 1.0728 0.33637 1.8902 0.87162 2.6608 1.7423 0.77469 0.87537 1.2579 1.8206 1.5368 3.0066 0.14955 0.63578 0.20244 1.9453 0.10605 2.6252-0.39691 2.7994-2.357 5.0182-4.8242 5.4609-0.49334 0.0885-1.4675 0.0749-1.9574-0.0273zm2.0591-1.0329c1.824-0.42358 3.3162-2.069 3.7559-4.1414 0.15422-0.7269 0.15422-1.8141 0-2.541-0.35447-1.6708-1.354-3.0388-2.7547-3.77-1.2255-0.63979-2.7959-0.63979-4.0214 0-1.4352 0.74932-2.4698 2.2012-2.7787 3.8999-0.115 0.63227-0.115 1.649 0 2.2813 0.3783 2.08 1.9066 3.8235 3.7398 4.2664 0.5335 0.1289 1.5149 0.13121 2.0591 5e-3zm-1.2335-4.9905c-0.07643-0.0478-0.1576-0.14056-0.18041-0.20608-0.0228-0.0655-0.04326-0.94468-0.04545-1.9537-0.0039-1.7624 6.43e-4 -1.8411 0.1136-2.0034 0.0907-0.1303 0.1676-0.16892 0.3363-0.16892 0.1687 0 0.2456 0.0387 0.3363 0.16892 0.1115 0.16018 0.11759 0.24813 0.11759 1.6989v1.53h0.93298c0.89657 0 0.93901 6e-3 1.0874 0.15012 0.21194 0.206 0.21194 0.51951 0 0.7255-0.15164 0.1474-0.17637 0.15009-1.3569 0.14786-0.90297-2e-3 -1.2371-0.0239-1.3414-0.0892zm-11.473-9.2599c1.4712-1.166 1.6366-1.2551 2.0019-1.0785 0.10538 0.0509 0.79158 0.56985 1.5249 1.1532 0.73331 0.58329 1.3424 1.032 1.3535 0.99701 0.01113-0.035-0.02309-0.66779-0.07603-1.4063-0.09413-1.3129-0.09385-1.3481 0.01306-1.5822 0.16707-0.36587 0.39478-0.49755 1.2501-0.72294 0.4281-0.11281 0.81251-0.22582 0.85424-0.25114 0.09868-0.0599-0.63779-0.33532-1.3808-0.51643-0.44909-0.10947-0.83578-0.14551-1.8549-0.17295-1.2481-0.0336-1.2913-0.0392-1.4093-0.18106-0.10941-0.13162-0.13087-0.2831-0.21217-1.4985l-0.09044-1.3521h-0.52707l-0.07118 1.202c-0.07837 1.3234-0.13063 1.6521-0.27639 1.7383-0.05354 0.0317-0.67181 0.073-1.3739 0.0919-0.98091 0.0263-1.4014 0.0646-1.8155 0.16498-0.70345 0.1706-1.5006 0.4685-1.4063 0.52557 0.04018 0.0244 0.42332 0.13655 0.85141 0.24936 0.86264 0.22732 1.098 0.36389 1.2564 0.72896 0.10192 0.23495 0.10242 0.28947 0.01418 1.5057-0.10512 1.4488-0.10867 1.57-0.04465 1.5253 0.0258-0.018 0.66436-0.5221 1.419-1.1202z" stroke-width=".22794"/></svg>
