<svg width="47" height="45" viewBox="0 0 47 45" fill="none" xmlns="http://www.w3.org/2000/svg">
<path opacity="0.4" d="M18.0717 3.75C13.0529 3.75 8.97266 7.74375 8.97266 12.6562C8.97266 17.475 12.823 21.375 17.8418 21.5437C17.9951 21.525 18.1483 21.525 18.2632 21.5437C18.3016 21.5437 18.3207 21.5437 18.359 21.5437C18.3782 21.5437 18.3782 21.5437 18.3973 21.5437C23.3012 21.375 27.1516 17.475 27.1707 12.6562C27.1707 7.74375 23.0905 3.75 18.0717 3.75Z" fill="#763DD9"/>
<path d="M27.8037 26.5307C22.4592 23.0432 13.7434 23.0432 8.36062 26.5307C5.92782 28.1244 4.58691 30.2807 4.58691 32.5869C4.58691 34.8932 5.92782 37.0307 8.34146 38.6057C11.0233 40.3682 14.548 41.2494 18.0726 41.2494C21.5972 41.2494 25.1219 40.3682 27.8037 38.6057C30.2174 37.0119 31.5583 34.8744 31.5583 32.5494C31.5391 30.2432 30.2174 28.1057 27.8037 26.5307Z" fill="#763DD9"/>
<path opacity="0.4" d="M39.122 13.7629C39.4285 17.4004 36.785 20.5879 33.1263 21.0192C33.1071 21.0192 33.1071 21.0192 33.0879 21.0192H33.0305C32.9155 21.0192 32.8006 21.0192 32.7048 21.0567C30.8467 21.1504 29.1418 20.5692 27.8584 19.5004C29.8315 17.7754 30.9616 15.1879 30.7318 12.3754C30.5977 10.8567 30.0613 9.46918 29.2568 8.28793C29.9847 7.93168 30.8276 7.70668 31.6896 7.63168C35.4441 7.31293 38.7964 10.0504 39.122 13.7629Z" fill="#763DD9"/>
<path d="M42.9555 31.106C42.8023 32.9248 41.6146 34.4998 39.6224 35.5685C37.7068 36.5998 35.2932 37.0873 32.8987 37.031C34.2779 35.8123 35.0825 34.2935 35.2357 32.681C35.4273 30.356 34.2971 28.1248 32.0367 26.3435C30.7533 25.3498 29.2591 24.5623 27.6309 23.981C31.8643 22.781 37.1896 23.5873 40.4653 26.1748C42.2276 27.5623 43.1279 29.306 42.9555 31.106Z" fill="#763DD9"/>
</svg>
